<?xml version="1.0" encoding="UTF-8" standalone="no"?>
<svg
   aria-hidden="true"
   focusable="false"
   data-prefix="fas"
   data-icon="cubes"
   class="svg-inline--fa fa-cubes fa-w-16"
   role="img"
   viewBox="0 0 128.35127 120"
   version="1.1"
   id="svg4"
   sodipodi:docname="favicon.svg"
   width="128.35127"
   height="120"
   inkscape:version="1.1.1 (3bf5ae0d25, 2021-09-20)"
   xmlns:inkscape="http://www.inkscape.org/namespaces/inkscape"
   xmlns:sodipodi="http://sodipodi.sourceforge.net/DTD/sodipodi-0.dtd"
   xmlns="http://www.w3.org/2000/svg"
   xmlns:svg="http://www.w3.org/2000/svg">
  <defs
     id="defs8" />
  <sodipodi:namedview
     id="namedview6"
     pagecolor="#ffffff"
     bordercolor="#666666"
     borderopacity="1.0"
     inkscape:pageshadow="2"
     inkscape:pageopacity="0.0"
     inkscape:pagecheckerboard="0"
     showgrid="false"
     inkscape:zoom="1.609375"
     inkscape:cx="141.98058"
     inkscape:cy="224"
     inkscape:window-width="1920"
     inkscape:window-height="1009"
     inkscape:window-x="1912"
     inkscape:window-y="-8"
     inkscape:window-maximized="1"
     inkscape:current-layer="svg4" />
  <path
     fill="currentColor"
     d="M 122.4852,58.446602 98.268937,48.751255 V 19.691999 c 0,-4.017409 -2.33138,-7.606294 -5.866054,-9.025779 L 67.334277,0.622698 c -2.030557,-0.830264 -4.286732,-0.830264 -6.342357,0 L 35.923314,10.66622 c -3.534674,1.419485 -5.866055,5.00837 -5.866055,9.025779 V 48.751255 L 5.8409853,58.446602 C 2.3313803,59.866086 0,63.454972 0,67.47238 v 29.48778 c 0,3.64245 1.9302827,6.99029 4.9886527,8.62404 l 25.0686063,13.39136 c 2.53193,1.36592 5.540163,1.36592 8.072091,0 l 26.046283,-13.92702 26.046282,13.92702 c 2.531929,1.36592 5.540162,1.36592 8.072092,0 L 123.36262,105.5842 c 3.05835,-1.63375 4.98865,-4.98159 4.98865,-8.62404 V 67.47238 c 0,-4.017408 -2.33138,-7.606294 -5.86607,-9.025778 z M 89.745612,48.965517 68.437296,57.509207 V 39.243388 L 89.745612,29.33378 Z M 38.605655,19.317041 64.175633,9.08604 89.745612,19.317041 v 0.160696 L 64.175633,30.565785 38.605655,19.477737 Z M 59.663284,97.28155 38.354968,108.66421 V 87.47908 l 21.308316,-10.3917 z m 0,-29.996649 L 34.093305,78.37295 8.5233263,67.284901 V 67.124205 L 34.093305,56.893204 59.663284,67.124205 Z M 119.82794,97.28155 98.519623,108.66421 V 87.47908 l 21.308317,-10.3917 z m 0,-29.996649 L 94.257961,78.37295 68.687983,67.284901 V 67.124205 L 94.257961,56.893204 119.82794,67.124205 Z"
     id="path2"
     style="stroke-width:0.259116" />
  <path
     style="fill:#892ca0;stroke-width:0.621359"
     d="M 17.714044,111.96107 C 6.7972418,106.13017 3.1082305,103.85601 2.0718242,102.31808 0.22018535,99.570436 -0.15056354,95.161146 0.10380924,78.912621 0.33403054,64.206819 0.62964294,62.753845 3.9175543,60.167576 4.7188748,59.537258 11.01369,56.786356 17.906032,54.05446 l 12.531531,-4.967081 0.0045,-15.750755 c 0.0049,-17.196922 0.281676,-18.797386 3.65394,-21.131608 C 36.33093,10.658053 62.43479,0.31067961 64.102487,0.31067961 c 0.738218,0 7.680609,2.52180789 15.427529,5.60401769 14.819393,5.8960837 16.555638,6.9713927 17.93884,11.1100627 0.449224,1.344129 0.705901,7.572162 0.705901,17.128002 v 15.015864 l 12.271843,4.873211 c 6.74952,2.680267 13.00631,5.382693 13.90398,6.005393 3.40816,2.364178 3.64942,3.835259 3.64942,22.25229 0,18.00776 -0.10595,18.72096 -3.2031,21.56079 -2.41957,2.21854 -27.385085,15.26607 -29.842312,15.59626 -2.009693,0.27004 -4.025246,-0.61199 -16.563529,-7.24841 l -14.275405,-7.55586 -13.976192,7.47968 c -9.964976,5.33298 -14.57363,7.47677 -16.057828,7.46959 -1.460242,-0.007 -6.346156,-2.28784 -16.36759,-7.6405 z m 31.684014,-8.70197 10.563107,-5.712226 0.170364,-10.404505 c 0.0937,-5.722476 0.02621,-10.404505 -0.14997,-10.404505 -0.176183,0 -5.215953,2.356002 -11.19949,5.235554 l -10.879156,5.235554 v 10.919786 c 0,6.005882 0.209708,10.902402 0.466019,10.881172 0.256311,-0.0212 5.219418,-2.60912 11.029126,-5.75083 z m 60.181512,-0.0529 10.34276,-5.531678 V 87.240351 76.806226 l -3.36588,1.488553 c -1.85124,0.818703 -6.74444,3.182173 -10.87379,5.252151 l -7.507903,3.763622 v 10.920774 c 0,6.006434 0.238963,10.827574 0.531026,10.713654 0.29207,-0.11391 5.185277,-2.69637 10.873787,-5.7388 z M 47.067234,73.168348 C 53.987222,70.176242 59.559026,67.457156 59.44902,67.12594 59.221562,66.441084 35.658252,56.855205 34.196344,56.8528 c -0.524494,-8.7e-4 -6.668119,2.286527 -13.6525,5.083088 -9.065433,3.629819 -12.4433528,5.245291 -11.8058252,5.646086 1.3546932,0.851642 24.4143582,10.930119 25.1260592,10.981611 0.341747,0.02473 6.283167,-2.403131 13.203156,-5.395237 z m 60.175106,-0.0031 c 6.96155,-2.990291 12.5821,-5.677956 12.49012,-5.972592 C 119.57234,66.67981 98.116418,57.827065 95.225985,57.08124 93.55968,56.651279 67.982335,66.684166 68.773648,67.457348 c 0.574378,0.561212 24.448827,11.054459 25.276117,11.109307 0.294362,0.01951 6.231025,-2.411123 13.192575,-5.401414 z M 79.842628,53.372922 90.097087,49.270117 V 39.08166 c 0,-5.603651 -0.09072,-10.188456 -0.201612,-10.188456 -0.110888,0 -4.934189,2.221658 -10.718447,4.937017 l -10.516834,4.937017 -0.171526,9.354245 c -0.111348,6.072579 0.05143,9.354245 0.463988,9.354245 0.349533,0 5.250019,-1.846263 10.889972,-4.102806 z M 76.893912,25.462865 C 83.623015,22.550935 89.365387,19.931699 89.654748,19.642339 90.450827,18.84626 64.923054,8.7971032 63.220617,9.2363874 60.345561,9.978245 38.874241,18.833757 38.704217,19.347794 c -0.171364,0.518092 23.551298,11.215518 25.159357,11.345284 0.437586,0.03531 6.301235,-2.318284 13.030338,-5.230213 z"
     id="path858"
     inkscape:export-filename="C:\Users\axio\Downloads\path858.png"
     inkscape:export-xdpi="96"
     inkscape:export-ydpi="96" />
  <path
     style="fill:#d7e3f4;stroke-width:0.621359"
     d="M 23.783947,114.68464 C 10.272808,107.73055 3.8477117,103.82307 2.377198,101.66593 0.51124474,98.928702 0.09112917,93.92169 0.44809028,78.674504 0.80969097,63.229148 1.1444983,62.061756 5.9043871,59.649739 7.6642827,58.757931 13.906239,56.089707 19.7754,53.720352 l 10.671202,-4.307919 0.31068,-16.42862 c 0.362359,-19.16145 0.19397,-18.632834 7.003022,-21.98419 5.990297,-2.9483727 24.640802,-10.06758417 26.374481,-10.06758417 1.59634,0 16.905687,5.73185557 24.404393,9.13706017 4.698899,2.133799 6.981158,3.809633 8.288634,6.086241 0.461844,0.804176 0.825438,6.904252 1.030325,17.286086 l 0.31662,16.043368 11.953173,4.850808 c 13.07239,5.305003 14.52821,6.076224 16.15468,8.557956 0.98133,1.497345 1.09603,3.496047 1.09603,19.098141 0,15.429101 -0.12469,17.653809 -1.08819,19.415901 -1.27723,2.33586 -4.64929,4.41923 -19.66885,12.15207 -9.420649,4.85024 -11.11852,5.5276 -13.166849,5.25286 -1.314982,-0.17638 -8.106967,-3.35654 -15.408174,-7.21446 -7.181135,-3.79447 -13.440137,-6.89904 -13.90889,-6.89904 -0.468753,0 -3.767223,1.5667 -7.329934,3.48155 -12.90423,6.93565 -21.096745,10.80971 -22.859407,10.80971 -1.006417,0 -5.484268,-1.89682 -10.164399,-4.30565 z m 24.319875,-10.37259 c 4.983675,-2.60508 9.830159,-5.280432 10.769964,-5.945231 l 1.708738,-1.208723 V 86.947983 c 0,-7.521777 -0.196146,-10.210119 -0.74495,-10.210119 -0.409722,0 -5.582538,2.286944 -11.495145,5.082097 l -10.750196,5.082091 v 10.659007 c 0,9.677511 0.179528,11.487481 1.139421,11.487481 0.171017,0 4.388493,-2.13142 9.372168,-4.73649 z m 61.566078,-0.7689 10.25243,-5.4877 0.17001,-10.65879 c 0.11298,-7.082793 -0.0471,-10.658796 -0.47705,-10.658796 -0.35589,0 -5.3955,2.279854 -11.19914,5.066339 l -10.552072,5.06634 v 10.10614 c 0,9.584717 0.238993,12.083277 1.153858,12.063007 0.219743,-0.005 5.013134,-2.47832 10.651964,-5.49654 z M 41.0928,76.063124 c 10.38168,-4.299346 18.247006,-8.174161 18.247006,-8.989291 0,-0.427626 -0.768932,-1.067582 -1.708738,-1.422111 -0.939806,-0.354535 -6.182524,-2.478242 -11.650485,-4.719344 -5.467962,-2.241103 -10.714284,-4.07547 -11.658495,-4.076371 -1.789463,-0.0017 -23.130071,8.184024 -25.1094067,9.63135 -0.6231816,0.45568 -0.9520801,1.009491 -0.730885,1.230683 0.8836008,0.883603 23.9177527,10.819461 25.1546927,10.850566 0.729196,0.01833 4.084536,-1.109133 7.456311,-2.505482 z m 62.7479,-1.095618 c 4.74392,-1.998937 10.43165,-4.549126 12.63939,-5.667088 l 4.01406,-2.032659 -2.39266,-1.227507 c -4.40473,-2.25976 -22.017644,-9.185883 -23.359419,-9.185883 -2.80425,0 -26.081877,9.337494 -26.081877,10.462384 0,0.893204 23.074088,11.171014 25.238754,11.24201 0.724039,0.02374 5.197826,-1.59232 9.941752,-3.591257 z M 80.466019,53.528378 90.097087,49.669985 90.267452,39.281594 c 0.122047,-7.442269 -0.02988,-10.38839 -0.535718,-10.38839 -0.388343,0 -5.261744,2.120228 -10.829788,4.711617 -7.68351,3.575939 -10.210777,5.036208 -10.484927,6.058253 -0.480255,1.790411 -0.481094,15.578756 -0.0012,16.829796 0.207435,0.540572 0.836561,0.962843 1.398059,0.93838 0.561708,-0.02446 5.355097,-1.780755 10.652184,-3.902872 z M 69.648752,28.870752 c 8.557651,-3.399463 20.137656,-8.806771 20.137656,-9.403323 0,-0.671282 -4.221428,-2.617758 -14.004828,-6.457548 C 63.467209,8.1767351 64.512746,8.2109136 54.239742,12.305677 49.355457,14.252526 43.681553,16.639539 41.631068,17.610149 l -3.728155,1.764746 2.796116,1.450576 c 6.264099,3.249705 21.528861,9.873464 22.818778,9.901633 0.760034,0.0166 3.518962,-0.818761 6.130945,-1.856352 z"
     id="path62"
     inkscape:export-filename="D:\dev\dev-private\hoating platform\silimasoftware\website\static\favicon.png"
     inkscape:export-xdpi="96"
     inkscape:export-ydpi="96" />
  <path
     style="fill:#d7e3f4;stroke-width:0.621359"
     d="M 22.497511,113.49699 C 11.205174,107.6746 6.1701083,104.73489 3.9260548,102.65407 1.1740992,100.10231 0.80236707,97.249019 1.0408849,80.508533 1.2257589,67.533067 1.418542,64.947883 2.3258389,63.277546 3.549401,61.024967 7.1218057,59.189342 21.580325,53.383926 l 9.153141,-3.675188 0.05478,-7.456311 c 0.03014,-4.100971 0.262686,-11.549663 0.516785,-16.552649 0.567829,-11.180055 0.781695,-11.590061 7.744038,-14.846163 7.269921,-3.399947 23.099412,-9.3002169 24.951019,-9.3002169 2.184631,0 16.12833,5.1215989 23.611557,8.6726589 9.220934,4.375665 9.084415,4.145738 9.687593,16.315631 0.275828,5.565178 0.51576,13.075351 0.53317,16.689272 l 0.03169,6.570766 7.611652,2.999291 c 10.8993,4.294754 18.60325,7.990203 20.03884,9.612269 1.16575,1.317193 1.25461,2.436249 1.43478,18.069324 0.23799,20.6481 0.18321,20.91202 -5.04101,24.29279 -6.32138,4.09076 -25.664214,13.59353 -27.66957,13.59353 -1.085223,0 -7.405291,-2.78236 -15.525431,-6.83495 -7.532315,-3.75922 -14.133375,-6.83495 -14.669011,-6.83495 -0.535637,0 -7.037017,3.07573 -14.447508,6.83495 -9.207309,4.67072 -14.134887,6.83495 -15.561994,6.83495 -1.389289,0 -5.251421,-1.63089 -11.53734,-4.87194 z m 22.098806,-7.0172 c 2.811832,-1.4128 7.559023,-3.94712 10.549314,-5.63181 l 5.436893,-3.063063 V 87.26139 c 0,-8.920363 -0.141394,-10.523526 -0.928141,-10.523526 -1.005511,0 -11.001637,4.387386 -17.82453,7.823341 l -4.23762,2.134028 v 11.176655 c 0,9.593002 0.134018,11.176652 0.945831,11.176652 0.520208,0 3.246421,-1.15593 6.058253,-2.56875 z m 66.001893,-3.04131 9.6348,-5.106997 V 87.53467 c 0,-9.13823 -0.14186,-10.796806 -0.92344,-10.796806 -0.50789,0 -5.5355,2.16699 -11.17247,4.815534 l -10.249038,4.815534 -0.01199,10.925564 c -0.0066,6.009064 0.190608,11.128164 0.438226,11.375794 0.737311,0.7373 2.189602,0.11876 12.283912,-5.23181 z M 41.016976,76.42345 c 2.388236,-0.94331 7.506467,-3.225687 11.373846,-5.071944 5.352653,-2.555321 6.984645,-3.611203 6.834951,-4.422133 C 58.98213,65.609488 37.679223,56.900859 34.625939,56.872958 30.912577,56.839025 8.3883495,65.708974 8.3883495,67.205213 c 0,0.96289 4.5477355,3.242023 16.7766995,8.40778 8.121573,3.43071 9.092402,3.480344 15.851927,0.810457 z m 60.187544,-0.06936 c 3.1181,-1.236319 8.8848,-3.770936 12.8149,-5.632485 8.25558,-3.910387 8.41181,-3.272854 -1.86408,-7.606928 -9.89442,-4.173178 -15.732449,-6.260306 -17.511084,-6.260306 -3.772098,0 -25.984062,9.029524 -25.984062,10.562945 0,1.231429 22.158117,11.072267 25.088013,11.142058 0.982866,0.02343 4.338205,-0.968966 7.456313,-2.205284 z M 80.854425,53.697122 90.407767,49.918516 V 39.405859 c 0,-9.027551 -0.134462,-10.512655 -0.951842,-10.512655 -1.140946,0 -14.992677,6.229175 -18.756107,8.434693 l -2.660983,1.55944 v 8.879956 c 0,4.883976 0.186408,9.066364 0.414242,9.294195 0.897534,0.897538 3.217043,0.268277 12.401348,-3.364366 z M 71.379275,28.493308 C 81.401184,24.491145 89.914184,20.27183 89.662478,19.431563 89.333704,18.333999 84.122644,15.847606 74.252427,12.078851 67.043511,9.3262621 65.447798,8.9250442 62.903419,9.225308 60.210398,9.5431133 45.109797,15.410199 39.560448,18.294829 l -2.278895,1.184601 7.766991,3.725176 c 10.264814,4.923172 16.684513,7.481102 18.87442,7.520514 0.982866,0.01769 4.338206,-0.986626 7.456311,-2.231812 z"
     id="path107" />
</svg>
